#tb 0: 1/15
#media_type 0: video
#codec_id 0: rawvideo
#dimensions 0: 208x112
#sar 0: 0/1
0,          0,          0,        1,    34944, 0xe33671a4
0,          1,          1,        1,    34944, 0xe33671a4
0,          2,          2,        1,    34944, 0xe33671a4
0,          3,          3,        1,    34944, 0xe33671a4
0,          4,          4,        1,    34944, 0xe33671a4
0,          5,          5,        1,    34944, 0xe33671a4
0,          6,          6,        1,    34944, 0xe33671a4
0,          7,          7,        1,    34944, 0xe33671a4
0,          8,          8,        1,    34944, 0xe33671a4
0,          9,          9,        1,    34944, 0xe33671a4
0,         10,         10,        1,    34944, 0xe33671a4
0,         11,         11,        1,    34944, 0xe33671a4
0,         12,         12,        1,    34944, 0xe33671a4
0,         13,         13,        1,    34944, 0xe33671a4
0,         14,         14,        1,    34944, 0xe33671a4
0,         15,         15,        1,    34944, 0x63196b41
0,         16,         16,        1,    34944, 0x308d6f10
0,         17,         17,        1,    34944, 0x86026ced
0,         18,         18,        1,    34944, 0xaa6a6bc9
0,         19,         19,        1,    34944, 0x58276ee3
0,         20,         20,        1,    34944, 0x402d70c2
0,         21,         21,        1,    34944, 0x948d74bf
0,         22,         22,        1,    34944, 0x3d31759c
0,         23,         23,        1,    34944, 0x638c734e
0,         24,         24,        1,    34944, 0xe218768a
0,         25,         25,        1,    34944, 0xed6678ff
0,         26,         26,        1,    34944, 0x381b7dda
0,         27,         27,        1,    34944, 0x216680e7
0,         28,         28,        1,    34944, 0xaca5810f
0,         29,         29,        1,    34944, 0xf70b81eb
0,         30,         30,        1,    34944, 0x3675858b
0,         31,         31,        1,    34944, 0xa51188c3
0,         32,         32,        1,    34944, 0x3a848bf1
0,         33,         33,        1,    34944, 0x67608d4d
0,         34,         34,        1,    34944, 0xafe49165
0,         35,         35,        1,    34944, 0x7e8a94a7
0,         36,         36,        1,    34944, 0x3b889432
0,         37,         37,        1,    34944, 0x97e89623
0,         38,         38,        1,    34944, 0x07819793
0,         39,         39,        1,    34944, 0xdac39b87
0,         40,         40,        1,    34944, 0x4d8c9d93
0,         41,         41,        1,    34944, 0xcf009fa7
0,         42,         42,        1,    34944, 0x2f109f6e
0,         43,         43,        1,    34944, 0xcedda4eb
0,         44,         44,        1,    34944, 0xfe89a6df
0,         45,         45,        1,    34944, 0x195ea7a9
0,         46,         46,        1,    34944, 0x9287ab92
0,         47,         47,        1,    34944, 0x6d21af54
0,         48,         48,        1,    34944, 0xd627b28b
0,         49,         49,        1,    34944, 0x3ad5b6fd
0,         50,         50,        1,    34944, 0x5101b64d
0,         51,         51,        1,    34944, 0xb968b8ca
0,         52,         52,        1,    34944, 0xa105b74a
0,         53,         53,        1,    34944, 0xc056bdd6
0,         54,         54,        1,    34944, 0xec7fc1d9
0,         55,         55,        1,    34944, 0x92c3c3e0
0,         56,         56,        1,    34944, 0x9bffc45c
0,         57,         57,        1,    34944, 0x5aabca4b
0,         58,         58,        1,    34944, 0xcbdacb26
0,         59,         59,        1,    34944, 0xed6cce3f
0,         60,         60,        1,    34944, 0xcc61cfb8
0,         61,         61,        1,    34944, 0x7a97d427
0,         62,         62,        1,    34944, 0x7cdbd5ec
0,         63,         63,        1,    34944, 0x5851d9c4
0,         64,         64,        1,    34944, 0x69d5dd1d
0,         65,         65,        1,    34944, 0xdf30dcf4
0,         66,         66,        1,    34944, 0x2359e084
0,         67,         67,        1,    34944, 0xe0bae491
0,         68,         68,        1,    34944, 0xa716e4fd
0,         69,         69,        1,    34944, 0xe48aeaf4
0,         70,         70,        1,    34944, 0x0a0deb21
0,         71,         71,        1,    34944, 0xe8a56e12
0,         72,         72,        1,    34944, 0x0d72c98e
0,         73,         73,        1,    34944, 0x71a7bb9d
0,         74,         74,        1,    34944, 0xc0c8c108
0,         75,         75,        1,    34944, 0x1d1fc3ba
0,         76,         76,        1,    34944, 0xebcfc67f
0,         77,         77,        1,    34944, 0x2921cb5b
0,         78,         78,        1,    34944, 0x793ed099
0,         79,         79,        1,    34944, 0xefebd9e8
0,         80,         80,        1,    34944, 0x163c2330
0,         81,         81,        1,    34944, 0x35155672
0,         82,         82,        1,    34944, 0x05474e2e
0,         83,         83,        1,    34944, 0x9433542f
0,         84,         84,        1,    34944, 0x777d5a13
0,         85,         85,        1,    34944, 0x87526776
0,         86,         86,        1,    34944, 0x4c3c72c1
0,         87,         87,        1,    34944, 0x70407b87
0,         88,         88,        1,    34944, 0x2358861d
0,         89,         89,        1,    34944, 0xec61923f
0,         90,         90,        1,    34944, 0x0bb2a0d4
0,         91,         91,        1,    34944, 0x6b6d8624
0,         92,         92,        1,    34944, 0x624761ec
0,         93,         93,        1,    34944, 0xff23b926
0,         94,         94,        1,    34944, 0x07fc7ca5
0,         95,         95,        1,    34944, 0xa8d3ffda
0,         96,         96,        1,    34944, 0xa2d31265
0,         97,         97,        1,    34944, 0x5e58225e
0,         98,         98,        1,    34944, 0x284b2fb0
0,         99,         99,        1,    34944, 0x205b3cb1
0,        100,        100,        1,    34944, 0x3fa64a09
0,        101,        101,        1,    34944, 0xa5de5097
0,        102,        102,        1,    34944, 0x00686cea
0,        103,        103,        1,    34944, 0x465a8282
0,        104,        104,        1,    34944, 0x4ceb8189
0,        105,        105,        1,    34944, 0x14698509
0,        106,        106,        1,    34944, 0x232c830d
0,        107,        107,        1,    34944, 0x0739807c
0,        108,        108,        1,    34944, 0x83b0861e
0,        109,        109,        1,    34944, 0xbdc094b1
0,        110,        110,        1,    34944, 0xc4c0a605
0,        111,        111,        1,    34944, 0x8376b059
0,        112,        112,        1,    34944, 0x2035b939
0,        113,        113,        1,    34944, 0xb6bfc812
0,        114,        114,        1,    34944, 0xc5d4d5c4
0,        115,        115,        1,    34944, 0x492c954e
0,        116,        116,        1,    34944, 0xd23f0dcc
0,        117,        117,        1,    34944, 0x22d7ff6c
0,        118,        118,        1,    34944, 0xd08b4168
0,        119,        119,        1,    34944, 0xa82e4062
0,        120,        120,        1,    34944, 0xcc4f2f31
0,        121,        121,        1,    34944, 0x964b0307
0,        122,        122,        1,    34944, 0xe8130606
0,        123,        123,        1,    34944, 0x5fb744bf
0,        124,        124,        1,    34944, 0x1546a88b
0,        125,        125,        1,    34944, 0xe6e4d94d
0,        126,        126,        1,    34944, 0x8d1ea97e
0,        127,        127,        1,    34944, 0x3bb1fb55
0,        128,        128,        1,    34944, 0x3c37e9cc
0,        129,        129,        1,    34944, 0xe2d22521
0,        130,        130,        1,    34944, 0x7c0ec8cc
0,        131,        131,        1,    34944, 0x7c2dc956
0,        132,        132,        1,    34944, 0x7fe3c263
0,        133,        133,        1,    34944, 0x9a65b813
0,        134,        134,        1,    34944, 0x7ea7cb14
0,        135,        135,        1,    34944, 0x31ded64e
0,        136,        136,        1,    34944, 0x50f30ad1
0,        137,        137,        1,    34944, 0x12eac45c
0,        138,        138,        1,    34944, 0x984b6335
0,        139,        139,        1,    34944, 0x3b9b02f0
0,        140,        140,        1,    34944, 0x4629d2a4
0,        141,        141,        1,    34944, 0x38687e89
0,        142,        142,        1,    34944, 0xb76620fe
0,        143,        143,        1,    34944, 0x66347155
0,        144,        144,        1,    34944, 0x6e6bc297
0,        145,        145,        1,    34944, 0x452a653a
0,        146,        146,        1,    34944, 0x8c8a0683
0,        147,        147,        1,    34944, 0xaf5d7c2d
0,        148,        148,        1,    34944, 0x3064a7e1
0,        149,        149,        1,    34944, 0xc0657fc4
0,        150,        150,        1,    34944, 0x1f129266
0,        151,        151,        1,    34944, 0x35adedfb
0,        152,        152,        1,    34944, 0x40a3db0d
0,        153,        153,        1,    34944, 0x87bebb37
0,        154,        154,        1,    34944, 0x04d7ffed
0,        155,        155,        1,    34944, 0x9bde3180
0,        156,        156,        1,    34944, 0xc35c25bd
0,        157,        157,        1,    34944, 0x820bf4bb
0,        158,        158,        1,    34944, 0x876163ef
0,        159,        159,        1,    34944, 0x3ab6dac0
0,        160,        160,        1,    34944, 0x69a9ef73
0,        161,        161,        1,    34944, 0x0df3813c
0,        162,        162,        1,    34944, 0x1bba0947
0,        163,        163,        1,    34944, 0x0b7883d4
0,        164,        164,        1,    34944, 0xa9972f7e
0,        165,        165,        1,    34944, 0x603d08fe
0,        166,        166,        1,    34944, 0x05f4f111
0,        167,        167,        1,    34944, 0xb24fdb42
0,        168,        168,        1,    34944, 0xfe2ad344
0,        169,        169,        1,    34944, 0xda4bcb8f
0,        170,        170,        1,    34944, 0xd28aca6b
0,        171,        171,        1,    34944, 0x9486c260
0,        172,        172,        1,    34944, 0xad9fc04d
0,        173,        173,        1,    34944, 0x9333c0ca
0,        174,        174,        1,    34944, 0x96e9c226
0,        175,        175,        1,    34944, 0x3e89bd6f
0,        176,        176,        1,    34944, 0x7a2dbd32
0,        177,        177,        1,    34944, 0xe578ba53
0,        178,        178,        1,    34944, 0xb77ebab1
0,        179,        179,        1,    34944, 0xd8bfbcb1
0,        180,        180,        1,    34944, 0x15d9bc97
0,        181,        181,        1,    34944, 0x09c3b9f0
0,        182,        182,        1,    34944, 0xd8c8b944
0,        183,        183,        1,    34944, 0x2c2fb996
0,        184,        184,        1,    34944, 0xd7a8b7e7
0,        185,        185,        1,    34944, 0xce34b843
0,        186,        186,        1,    34944, 0xba69e9fd
0,        187,        187,        1,    34944, 0x1b3f1adc
0,        188,        188,        1,    34944, 0x48f515aa
0,        189,        189,        1,    34944, 0x864e12bb
0,        190,        190,        1,    34944, 0xca571996
0,        191,        191,        1,    34944, 0x1d5a1af0
0,        192,        192,        1,    34944, 0x3d1e171f
0,        193,        193,        1,    34944, 0xb57417ca
0,        194,        194,        1,    34944, 0x6e6d1e9d
0,        195,        195,        1,    34944, 0xc9971899
0,        196,        196,        1,    34944, 0xe0b112c8
0,        197,        197,        1,    34944, 0x121b0cd9
0,        198,        198,        1,    34944, 0x418e0eff
0,        199,        199,        1,    34944, 0x9e1b07d8
0,        200,        200,        1,    34944, 0x5590064a
0,        201,        201,        1,    34944, 0x7a170b14
0,        202,        202,        1,    34944, 0xf25709f0
0,        203,        203,        1,    34944, 0x94fa099a
0,        204,        204,        1,    34944, 0x081e06ae
0,        205,        205,        1,    34944, 0xcfc40417
0,        206,        206,        1,    34944, 0xed33096f
0,        207,        207,        1,    34944, 0xd73a07e2
0,        208,        208,        1,    34944, 0xc512077d
0,        209,        209,        1,    34944, 0x27d7021d
0,        210,        210,        1,    34944, 0xab59fd20
0,        211,        211,        1,    34944, 0xcc2400b7
0,        212,        212,        1,    34944, 0xcb3bfb99
0,        213,        213,        1,    34944, 0x0974fb1a
0,        214,        214,        1,    34944, 0xef79f8ba
0,        215,        215,        1,    34944, 0xf932f3a2
0,        216,        216,        1,    34944, 0xa32df1bc
0,        217,        217,        1,    34944, 0xdbe0f532
0,        218,        218,        1,    34944, 0x234cf142
0,        219,        219,        1,    34944, 0xe68befd0
0,        220,        220,        1,    34944, 0xe4e7ee45
0,        221,        221,        1,    34944, 0x0283eff1
0,        222,        222,        1,    34944, 0xc8d3f6db
0,        223,        223,        1,    34944, 0x0aa6ee88
0,        224,        224,        1,    34944, 0xcc3de527
0,        225,        225,        1,    34944, 0x9db0ebef
0,        226,        226,        1,    34944, 0xa207e9db
0,        227,        227,        1,    34944, 0x35b3e74a
0,        228,        228,        1,    34944, 0x1988e848
0,        229,        229,        1,    34944, 0x727de73c
0,        230,        230,        1,    34944, 0x05d5e709
0,        231,        231,        1,    34944, 0x3214e4b2
0,        232,        232,        1,    34944, 0xed85e0a9
0,        233,        233,        1,    34944, 0xf6c9e100
0,        234,        234,        1,    34944, 0x57a8dbaf
0,        235,        235,        1,    34944, 0xc75fdf41
0,        236,        236,        1,    34944, 0x736fde24
0,        237,        237,        1,    34944, 0x8d4bde80
0,        238,        238,        1,    34944, 0x3220dc86
0,        239,        239,        1,    34944, 0xe498da85
0,        240,        240,        1,    34944, 0x0655daed
0,        241,        241,        1,    34944, 0xb22ad874
0,        242,        242,        1,    34944, 0x8198d411
0,        243,        243,        1,    34944, 0xd0d2d557
0,        244,        244,        1,    34944, 0xd740d1ff
0,        245,        245,        1,    34944, 0x2783d00e
0,        246,        246,        1,    34944, 0x7abdcd6b
0,        247,        247,        1,    34944, 0x2e47d1eb
0,        248,        248,        1,    34944, 0xfe1bcf60
0,        249,        249,        1,    34944, 0xf0f0d5bb
0,        250,        250,        1,    34944, 0x9af7d581
0,        251,        251,        1,    34944, 0xb325ca3d
0,        252,        252,        1,    34944, 0xd88abfbd
0,        253,        253,        1,    34944, 0xf2bab746
0,        254,        254,        1,    34944, 0xac44a7dd
0,        255,        255,        1,    34944, 0x609e9ea3
0,        256,        256,        1,    34944, 0xa39993b9
0,        257,        257,        1,    34944, 0x9c948911
0,        258,        258,        1,    34944, 0x72f8822d
0,        259,        259,        1,    34944, 0x7f3f7a8c
0,        260,        260,        1,    34944, 0x7ab475f9
0,        261,        261,        1,    34944, 0x536f73aa
0,        262,        262,        1,    34944, 0x86cb71e5
0,        263,        263,        1,    34944, 0x17157186
0,        264,        264,        1,    34944, 0xe33671a4
0,        265,        265,        1,    34944, 0xe33671a4
0,        266,        266,        1,    34944, 0xe33671a4
0,        267,        267,        1,    34944, 0xe33671a4
0,        268,        268,        1,    34944, 0xe33671a4
0,        269,        269,        1,    34944, 0xe33671a4
0,        270,        270,        1,    34944, 0xe33671a4
0,        271,        271,        1,    34944, 0xe33671a4
0,        272,        272,        1,    34944, 0xe33671a4
0,        273,        273,        1,    34944, 0xe33671a4
0,        274,        274,        1,    34944, 0xe33671a4
0,        275,        275,        1,    34944, 0xe33671a4
0,        276,        276,        1,    34944, 0xe33671a4
0,        277,        277,        1,    34944, 0xe33671a4
